<?xml version="1.0" encoding="utf-8"?>
<!-- Generator: Adobe Illustrator 23.0.3, SVG Export Plug-In . SVG Version: 6.00 Build 0)  -->
<svg version="1.1" id="Warstwa_1" xmlns="http://www.w3.org/2000/svg" xmlns:xlink="http://www.w3.org/1999/xlink" x="0px" y="0px"
	 viewBox="0 0 496 496" style="enable-background:new 0 0 496 496;" xml:space="preserve">
<style type="text/css">
	.st0{fill:#FFFFFF;stroke:#304352;stroke-width:6;}
	.st1{fill:#FFFFFF;stroke:#304352;stroke-width:10;}
</style>
<path class="st0" d="M448,182.9c0-11.8-5.1-23-14.1-30.6L384,109.5l-49.9,42.8c-9,7.7-14.1,18.9-14.1,31.4
	c0,22.3,18.1,40.4,40.4,40.4c5.4,0,10.7-1.2,15.6-3.2V248h16v-27.2c4.9,2.1,10.3,3.2,15.6,3.2C429.9,224,448,205.9,448,182.9z
	 M407.6,208c-3.8,0-7.5-0.9-10.9-2.6l-12.7-6.4l-12.8,6.4c-3.4,1.7-7.1,2.6-10.9,2.6c-13.4,0-24.4-10.9-24.4-25.1
	c0-7.1,3.1-13.9,8.5-18.5l39.5-33.8l39.5,33.8c5.4,4.6,8.5,11.4,8.5,19.3C432,197.1,421.1,208,407.6,208z"/>
<path class="st0" d="M320,248h-16v48h64v-16h-48V248z"/>
<path class="st0" d="M384,280h15.6v16H384V280z"/>
<path class="st0" d="M448,120h16v16h-16V120z"/>
<path class="st0" d="M448,104h16V56h-47.9v16H448V104z"/>
<path class="st1" d="M472,24H296c-10.6,0-19.5,6.9-22.7,16.4c-2.2,0.4-4.3,1.1-6.3,2.1l-157.5,78.6c-11.8,5.9-16.7,20.3-10.8,32.2
	l2.9,5.8l-88,88C4.8,255.8,0,267.5,0,280s4.8,24.2,13.7,33L159,458.3c8.8,8.8,20.5,13.7,33,13.7s24.2-4.8,33-13.7l97.4-97.4
	c3-3,5.4-6.4,7.5-10l46-22.9H472c13.2,0,24-10.8,24-24V48C496,34.8,485.2,24,472,24z M272,225.3l-1.7,3.1c-1.8,3.3-4.4,6.1-7.5,8.3
	c-5.4,3.7-11.9,5-18.2,3.8c-6.4-1.2-11.9-4.8-16-10.8c-4-5.9-5.3-13.2-3.4-20.1l13.5-50.2L272,163V225.3z M213.7,447
	c-11.6,11.6-31.7,11.6-43.3,0L25,301.7c-5.8-5.8-9-13.5-9-21.7s3.2-15.9,9-21.7l84.2-84.2L150,256h-38v72c0,22.1,17.9,40,40,40
	c18.7,0,34.4-13,38.7-30.4l22.3,44.8c2.9,5.7,7.8,10,13.9,12c2.5,0.8,5.1,1.3,7.6,1.3c3.7,0,7.3-0.8,10.7-2.5l44.6-22.3L213.7,447z
	 M181.9,320H176v8c0,13.2-10.8,24-24,24s-24-10.8-24-24v-56h30L181.9,320z M238.1,378.8c-1.9,1-4.1,1.1-6.1,0.4
	c-2-0.7-3.7-2.1-4.6-4L113.1,146.1c-2-4-0.4-8.8,3.6-10.7L272,57.9v89l-45.3-5l-17.1,63.5c-3.1,11.4-1,23.5,6.1,33.9
	c6.1,8.9,15.3,14.9,25.9,16.9c2.5,0.5,5,0.7,7.6,0.7c8,0,15.9-2.4,22.7-7c0.1-0.1,0.1-0.1,0.2-0.2V304c0,13.2,10.8,24,24,24h43.9
	L238.1,378.8z M480,304c0,4.4-3.6,8-8,8H296c-4.4,0-8-3.6-8-8V48c0-4.4,3.6-8,8-8h176c4.4,0,8,3.6,8,8V304z"/>
<path class="st0" d="M220.1,324.9l14.3-7.1l7.1,14.3l-14.3,7.1L220.1,324.9z"/>
<path class="st0" d="M205.8,296.2l14.3-7.1l7.1,14.3l-14.3,7.1L205.8,296.2z"/>
<path class="st0" d="M191.5,267.6l14.3-7.1l7.1,14.3l-14.3,7.1L191.5,267.6z"/>
<path class="st0" d="M320,75.3V112h16V56h-19.3l-18.3,18.3l11.3,11.3L320,75.3z"/>
<path class="st0" d="M448,276.7V240h-16v56h19.3l18.3-18.3l-11.3-11.3L448,276.7z"/>
<path class="st0" d="M140.9,135.8l-4.8,25.5l15.7,3l2.7-14.4l20.7,30.3l13.2-9l-31.6-46.2L140.9,135.8z"/>
<path class="st0" d="M32,268.7V296h16v-20.2l24.8,26.8l11.7-10.9l-36.3-39.3L32,268.7z"/>
<path class="st0" d="M192,423.4l-20.3-20.3l-11.3,11.3l21.3,21.3c2.7,2.7,6.5,4.3,10.3,4.3s7.6-1.6,10.3-4.3l21.9-21.9L213,402.5
	L192,423.4z"/>
<path class="st0" d="M135.1,389.2l11.3-11.3l16.2,16.2l-11.3,11.3L135.1,389.2z"/>
</svg>
