
<!-- Generator: Adobe Illustrator 23.0.3, SVG Export Plug-In . SVG Version: 6.00 Build 0)  -->
<svg version="1.1" id="Capa_1" xmlns="http://www.w3.org/2000/svg" xmlns:xlink="http://www.w3.org/1999/xlink" x="0px" y="0px"
	 viewBox="0 0 144.8 144.8" style="enable-background:new 0 0 144.8 144.8;" xml:space="preserve">
<style type="text/css">
	.st0{fill:#ADB998;}
	.st1{clip-path:url(#SVGID_2_);}
	.st2{fill:#1D1D1B;}
	.st3{fill:#F1C9A5;}
	.st4{opacity:0.1;fill:#DDAC8C;enable-background:new    ;}
	.st5{fill:#FFFFFF;}
	.st6{fill:#1A1332;}
	.st7{fill:#1D1F41;}
	.st8{fill:#DF0917;}
</style>
<circle class="st0" cx="72.4" cy="72.4" r="72.4"/>
<g>
	<g>
		<defs>
			<circle id="SVGID_1_" cx="72.4" cy="72.4" r="72.4"/>
		</defs>
		<clipPath id="SVGID_2_">
			<use xlink:href="#SVGID_1_"  style="overflow:visible;"/>
		</clipPath>
		<g class="st1">
			<path class="st2" d="M43.3,110.1c0,0,4.8,1.7,7.9,7.7c11-5.3,14.6-10.6,15.9-14.5c5.1-15.3-18.4-30.8-10.1-40
				c0.4-0.4,2.2-1.5,5.8-3.8c7.3-4.5,13.7-7.8,18.1-9.9c-0.6-3.9-1.1-7.7-1.7-11.6c0,0-13.3,0-18,0c-4.7,0-19.6,3.8-19.6,27.4
				C41.8,89.2,43.3,110.1,43.3,110.1z"/>
			<g>
				<path class="st3" d="M107.1,116.9c-4.7-8.8-34.7-14.4-34.7-14.4s-30,5.5-34.7,14.4c-3.4,12.3-6.3,27.8-6.3,27.8h41h41
					C113.4,144.8,111.4,128.1,107.1,116.9z"/>
				<rect x="64.2" y="84.6" class="st3" width="16.3" height="27.3"/>
				<path class="st4" d="M64.2,97.3c1.5,4.2,7.4,6.6,11.8,6.6c1.6,0,3.1-0.3,4.6-0.7V84.6H64.2V97.3z"/>
				<path class="st5" d="M107.1,116.9c-2.7-5.2-14.1-9.2-23.1-11.7c-0.4,6.1-5.4,11-11.6,11c-6.2,0-11.2-4.8-11.6-11
					c-9,2.5-20.3,6.5-23.1,11.7c-3.4,12.3-6.3,27.8-6.3,27.8h41h41C113.4,144.8,111.4,128.1,107.1,116.9z"/>
				<path class="st6" d="M37.7,116.9c-3.4,12.3-6.3,27.8-6.3,27.8h29.8c-5.1-22.3-5.2-38-5.2-38.1C48.1,109.2,40,112.7,37.7,116.9z"
					/>
				<path class="st7" d="M107.1,116.9c4.7,11.5,6.3,27.8,6.3,27.8H83.6c5.1-22.3,5.2-38,5.2-38.1
					C96.7,109.2,104.8,112.7,107.1,116.9z"/>
				<path class="st3" d="M93.4,67.4c0-17.1-9.4-26.8-21-26.8s-21,9.7-21,26.8c0,7.2,2.2,23,5.9,26.2c2.6,2.3,10.9,6.2,15,6.2h0
					c0,0,0,0,0,0c0,0,0,0,0,0h0c4.1,0,12.5-3.9,15-6.2C91.3,89.5,93.4,73.9,93.4,67.4z"/>
			</g>
			<path class="st8" d="M68.9,87c0,0,0.5,2.2,3.4,2.3c2.7,0,3.5-2.2,3.5-2.2L68.9,87z"/>
		</g>
	</g>
</g>
<path class="st3" d="M60.6,70.2c2.6,3.9,2.1,8.7-1.1,10.7c-3.2,2-8,0.5-10.6-3.4c-2.6-3.9-2.1-8.7,1.1-10.7
	C53.2,64.8,57.9,66.3,60.6,70.2z"/>
<path class="st2" d="M98.4,108.3c0,0-3.8,1.5-6.5,7.2c-8.6-5.3-11.3-10.6-12.2-14.3C78.5,96,93,68.9,88.9,63
	c-0.3-0.4-1.7-1.5-4.5-3.8C78.7,54.8,71.4,41.9,72,38.2c0,0,10.5,0.3,14.2,0.4c3.7,0.1,15.4,4.1,14.7,26.8
	C100.2,88.2,98.4,108.3,98.4,108.3z"/>
<path class="st3" d="M94,79.2c-2.6,3.9-7.2,5.3-10.3,3.1c-3.1-2.2-3.6-7.2-1-11.1c2.6-3.9,7.2-5.3,10.3-3.1
	C96.2,70.3,96.6,75.3,94,79.2z"/>
</svg>
