<?xml version="1.0" encoding="utf-8"?>
<!-- Generator: Adobe Illustrator 23.0.3, SVG Export Plug-In . SVG Version: 6.00 Build 0)  -->
<svg version="1.1" id="Warstwa_1" xmlns="http://www.w3.org/2000/svg" xmlns:xlink="http://www.w3.org/1999/xlink" x="0px" y="0px"
	 viewBox="0 0 496 496" style="enable-background:new 0 0 496 496;" xml:space="preserve">
<style type="text/css">
	.st0{fill:#FFFFFF;stroke:#304352;stroke-width:10;}
	.st1{fill:none;stroke:#304352;stroke-width:6;}
	.st2{fill:none;stroke:#304352;stroke-width:9.5993;}
	.st3{fill:none;stroke:#304352;stroke-width:5.58;}
	.st4{fill:none;stroke:#304352;stroke-width:10;}
	.st5{fill:none;stroke:#304352;stroke-width:5;}
	.st6{fill:none;stroke:#304352;stroke-width:4.9748;}
</style>
<path class="st0" d="M-99.6,209.7"/>
<path class="st1" d="M204.7,174.9c-5.9,5.8-7.9,14.1-5.7,23.1c0.5,2,0.9,3,2.9,6.3c2.2,3.7,2.5,4,4.8,5.9c6.3,5,12.3,7.3,31.4,12.7
	c12.1,3.3,16.9,4.9,22.6,7.3c8.6,3.7,15.5,8.8,18.8,14c0.9,1.4,1.1,1.6,0.9,0.8c-0.1-0.6-0.6-1.6-1-2.3c-1.7-2.9-3.1-9.2-3.3-14.7
	c-0.3-7.5,0.5-13.2,4.8-33.2c2.6-12.1,3.4-18.4,3.2-24c-0.3-5.8-1.3-9.3-3.9-13.6c-4-6.5-9.8-10.4-17.3-11.8
	c-9.4-1.6-19.1,3.1-23.4,11.7c-0.9,1.9-2.1,5.9-2.4,8.4c-0.2,2.1,0.1,6.6,0.8,9l0.6,2.1l-1.6-1.5c-0.9-0.8-2.8-2.2-4.1-3
	C223.3,166.5,211.8,167.7,204.7,174.9z"/>
<path class="st1" d="M107,263.2c2.7,7.4,7,20.5,8.4,25.5c1.7,6.1,3.9,19,5.6,31.9l0.3,2.5l7.2,1.6c9.5,2.1,20.4,5.1,24.9,6.7
	c4.5,1.7,14.8,6.1,23.2,10.1c3.5,1.6,6.5,3,6.6,2.9c0.1-0.1-1.1-3.4-2.5-7.6c-3-8.4-6-17.6-7.4-22.5c-1.2-4.3-3.3-15-4.5-24.1
	c-0.5-3.9-1.1-7.9-1.3-8.9l-0.3-1.7l-6.7-1.5c-10.6-2.3-21.9-5.5-27.1-7.6c-5.5-2.2-15.9-6.8-22.9-10c-2.8-1.3-5.1-2.3-5.1-2.3
	C105.2,258.2,106,260.5,107,263.2z"/>
<path class="st2" d="M466.3,23H302.8c-9.9,0-18.1,6.8-21.1,16.3c-2,0.4-4,1.1-5.9,2.1l-146.4,77.9c-11,5.8-15.5,20.1-10,31.9
	l2.7,5.8l-81.8,87.2c-8.2,8.6-12.6,20.2-12.6,32.6s4.5,24,12.7,32.7l135,144.1c8.2,8.7,19.1,13.6,30.7,13.6
	c11.6,0,22.5-4.8,30.7-13.6l90.5-96.6c2.8-3,5-6.3,7-9.9l42.8-22.7h89.3c12.3,0,22.3-10.7,22.3-23.8V46.8
	C488.7,33.7,478.6,23,466.3,23z M223.5,442.5c-10.8,11.5-29.5,11.5-40.2,0L48.1,298.5c-5.4-5.8-8.4-13.4-8.4-21.5s3-15.8,8.4-21.5
	l78.3-83.5l37.9,81.2c2.9,5.3,7.4,15.9,7.4,15.9l22.2,47.6l9.2,19.2l-0.3-0.2l20,42.7c2.7,5.7,7.2,9.9,12.9,11.9
	c2.3,0.8,4.7,1.3,7.1,1.3c3.4,0,6.8-0.8,9.9-2.5l41.5-22.1L223.5,442.5z M362.2,311.2L249,374.7c-1.8,1-3.8,1.1-5.7,0.4
	c-1.9-0.7-3.4-2.1-4.3-4L132.8,144c-1.9-4-0.4-8.7,3.3-10.6l144.3-76.8c12-6.9,14.4-6.9,14.4-6.9 M473.8,300.6
	c0,4.4-3.3,7.9-7.4,7.9H302.8c-4.1,0-7.4-3.6-7.4-7.9V46.8c0-4.4,3.3-7.9,7.4-7.9h163.6c4.1,0,7.4,3.6,7.4,7.9V300.6z"/>
<path class="st1" d="M220.1,324.9l14.3-7.1l7.1,14.3l-14.3,7.1L220.1,324.9z"/>
<path class="st1" d="M205.8,296.2l14.3-7.1l7.1,14.3l-14.3,7.1L205.8,296.2z"/>
<path class="st1" d="M191.5,267.6l14.3-7.1l7.1,14.3l-14.3,7.1L191.5,267.6z"/>
<path class="st1" d="M199,417.4l-20.3-20.3l-11.3,11.3l21.3,21.3c2.7,2.7,6.5,4.3,10.3,4.3s7.6-1.6,10.3-4.3l21.9-21.9L220,396.5
	L199,417.4z"/>
<path class="st1" d="M146.1,386.2l11.3-11.3l16.2,16.2l-11.3,11.3L146.1,386.2z"/>
<path class="st1" d="M154,150.9"/>
<path class="st3" d="M614,197.9"/>
<path class="st4" d="M156.1,337.8"/>
<path class="st4" d="M328,425.9"/>
<path class="st5" d="M380.8,127.7c-22.1,5-31.7,27.8-18.6,44c2.5,3.1,6.9,6.6,10.8,8.4c3.7,1.8,6.4,4.3,9.2,8.7
	c1.7,2.7,4.2,7.7,4.2,8.3c0,0.1-1-1-2.4-2.7c-10.4-12.9-30.7-15.7-45.3-6.4c-5.2,3.3-9.8,9-11.7,14.7c-0.9,2.4-1,3.9-1,8
	c0.1,5.3,0.6,7.5,2.5,11.6c2.8,5.7,8.9,11.2,15.2,13.9c13.4,5.7,29.5,2.7,38.8-7.2c1.3-1.3,2.7-3.1,3.2-4c1.3-2.2,1.3-1.2-0.2,2
	c-1.7,4-4.5,8.2-7.2,11c-5.8,6.2-15.7,10.9-24.8,11.9c-1.8,0.1-3.3,0.4-3.4,0.5c-0.1,0.1,17.7,0,39.6-0.2
	c21.8-0.1,39.5-0.4,39.2-0.6c-0.3-0.1-1.3-0.3-2-0.3c-2.4,0-9.5-1.8-13.4-3.4c-6.5-2.8-12.6-7.5-16.2-12.9c-1.7-2.4-4.6-7.9-4.4-8.1
	c0.1-0.1,1,1,2.1,2.4c3.6,4.4,9.5,8.1,16.2,10.1c3.1,0.9,4.1,1,9.8,1c5.7-0.1,6.6-0.1,9.8-1.1c10.5-3.3,18-10.1,21.1-19.4
	c0.8-2.5,1-4,0.9-8.1c-0.1-4.6-0.2-5.4-1.7-8.7c-4.3-10.5-14.3-17.5-27.1-18.9c-11-1.2-22.8,3.6-29.5,11.9c-1.1,1.4-2,2.5-2,2.3
	c0-0.5,2-4.6,3.4-6.9c2.2-3.7,5.2-7,8.4-9.3c6.2-4.4,10.1-8.1,12.2-11.4c2.8-4.6,3.8-8.3,3.8-13.7c0-7-2.3-12.8-7.5-18.1
	c-3.1-3.2-5.7-5-10.3-7C395.8,126.9,387.9,126.1,380.8,127.7z"/>
<path class="st4" d="M270.1,242.4"/>
<path class="st4" d="M333.4,328.7"/>
<path class="st6" d="M443.4,65.5l-0.1,23.8l13.2,0.6l0.1-25c0-3.2-1.3-6.4-3.5-8.7s-5.4-3.7-8.5-3.9L419,51.2l-0.1,13.2L443.4,65.5z
	"/>
<path class="st1" d="M393.3,50.4l16,0.4l-0.4,16l-16-0.4L393.3,50.4z"/>
</svg>
